<?xml version="1.0" standalone="no"?>
<svg xmlns:xlink="http://www.w3.org/1999/xlink" id="wave" style="transform:rotate(0deg); transition: 0.3s" viewBox="0 0 1440 490" version="1.1" xmlns="http://www.w3.org/2000/svg"><defs><linearGradient id="sw-gradient-0" x1="0" x2="0" y1="1" y2="0"><stop stop-color="rgba(172, 227, 255, 1)" offset="0%"/><stop stop-color="rgba(172, 227, 255, 1)" offset="100%"/></linearGradient></defs><path style="transform:translate(0, 0px); opacity:1" fill="url(#sw-gradient-0)" d="M0,98L60,89.8C120,82,240,65,360,57.2C480,49,600,49,720,98C840,147,960,245,1080,253.2C1200,261,1320,180,1440,171.5C1560,163,1680,229,1800,236.8C1920,245,2040,196,2160,196C2280,196,2400,245,2520,236.8C2640,229,2760,163,2880,130.7C3000,98,3120,98,3240,114.3C3360,131,3480,163,3600,187.8C3720,212,3840,229,3960,212.3C4080,196,4200,147,4320,163.3C4440,180,4560,261,4680,261.3C4800,261,4920,180,5040,163.3C5160,147,5280,196,5400,236.8C5520,278,5640,310,5760,310.3C5880,310,6000,278,6120,285.8C6240,294,6360,343,6480,375.7C6600,408,6720,425,6840,375.7C6960,327,7080,212,7200,171.5C7320,131,7440,163,7560,155.2C7680,147,7800,98,7920,73.5C8040,49,8160,49,8280,57.2C8400,65,8520,82,8580,89.8L8640,98L8640,490L8580,490C8520,490,8400,490,8280,490C8160,490,8040,490,7920,490C7800,490,7680,490,7560,490C7440,490,7320,490,7200,490C7080,490,6960,490,6840,490C6720,490,6600,490,6480,490C6360,490,6240,490,6120,490C6000,490,5880,490,5760,490C5640,490,5520,490,5400,490C5280,490,5160,490,5040,490C4920,490,4800,490,4680,490C4560,490,4440,490,4320,490C4200,490,4080,490,3960,490C3840,490,3720,490,3600,490C3480,490,3360,490,3240,490C3120,490,3000,490,2880,490C2760,490,2640,490,2520,490C2400,490,2280,490,2160,490C2040,490,1920,490,1800,490C1680,490,1560,490,1440,490C1320,490,1200,490,1080,490C960,490,840,490,720,490C600,490,480,490,360,490C240,490,120,490,60,490L0,490Z"/><defs><linearGradient id="sw-gradient-1" x1="0" x2="0" y1="1" y2="0"><stop stop-color="rgba(63, 193, 254, 1)" offset="0%"/><stop stop-color="rgba(63, 193, 254, 1)" offset="100%"/></linearGradient></defs><path style="transform:translate(0, 50px); opacity:0.9" fill="url(#sw-gradient-1)" d="M0,196L60,196C120,196,240,196,360,212.3C480,229,600,261,720,236.8C840,212,960,131,1080,81.7C1200,33,1320,16,1440,24.5C1560,33,1680,65,1800,122.5C1920,180,2040,261,2160,277.7C2280,294,2400,245,2520,228.7C2640,212,2760,229,2880,212.3C3000,196,3120,147,3240,163.3C3360,180,3480,261,3600,245C3720,229,3840,114,3960,98C4080,82,4200,163,4320,187.8C4440,212,4560,180,4680,147C4800,114,4920,82,5040,73.5C5160,65,5280,82,5400,81.7C5520,82,5640,65,5760,65.3C5880,65,6000,82,6120,89.8C6240,98,6360,98,6480,138.8C6600,180,6720,261,6840,245C6960,229,7080,114,7200,130.7C7320,147,7440,294,7560,367.5C7680,441,7800,441,7920,416.5C8040,392,8160,343,8280,277.7C8400,212,8520,131,8580,89.8L8640,49L8640,490L8580,490C8520,490,8400,490,8280,490C8160,490,8040,490,7920,490C7800,490,7680,490,7560,490C7440,490,7320,490,7200,490C7080,490,6960,490,6840,490C6720,490,6600,490,6480,490C6360,490,6240,490,6120,490C6000,490,5880,490,5760,490C5640,490,5520,490,5400,490C5280,490,5160,490,5040,490C4920,490,4800,490,4680,490C4560,490,4440,490,4320,490C4200,490,4080,490,3960,490C3840,490,3720,490,3600,490C3480,490,3360,490,3240,490C3120,490,3000,490,2880,490C2760,490,2640,490,2520,490C2400,490,2280,490,2160,490C2040,490,1920,490,1800,490C1680,490,1560,490,1440,490C1320,490,1200,490,1080,490C960,490,840,490,720,490C600,490,480,490,360,490C240,490,120,490,60,490L0,490Z"/><defs><linearGradient id="sw-gradient-2" x1="0" x2="0" y1="1" y2="0"><stop stop-color="rgba(40, 172, 244, 1)" offset="0%"/><stop stop-color="rgba(40, 172, 244, 1)" offset="100%"/></linearGradient></defs><path style="transform:translate(0, 100px); opacity:0.8" fill="url(#sw-gradient-2)" d="M0,343L60,343C120,343,240,343,360,343C480,343,600,343,720,334.8C840,327,960,310,1080,318.5C1200,327,1320,359,1440,351.2C1560,343,1680,294,1800,261.3C1920,229,2040,212,2160,171.5C2280,131,2400,65,2520,40.8C2640,16,2760,33,2880,57.2C3000,82,3120,114,3240,163.3C3360,212,3480,278,3600,310.3C3720,343,3840,343,3960,326.7C4080,310,4200,278,4320,277.7C4440,278,4560,310,4680,318.5C4800,327,4920,310,5040,302.2C5160,294,5280,294,5400,261.3C5520,229,5640,163,5760,114.3C5880,65,6000,33,6120,81.7C6240,131,6360,261,6480,285.8C6600,310,6720,229,6840,163.3C6960,98,7080,49,7200,57.2C7320,65,7440,131,7560,187.8C7680,245,7800,294,7920,302.2C8040,310,8160,278,8280,245C8400,212,8520,180,8580,163.3L8640,147L8640,490L8580,490C8520,490,8400,490,8280,490C8160,490,8040,490,7920,490C7800,490,7680,490,7560,490C7440,490,7320,490,7200,490C7080,490,6960,490,6840,490C6720,490,6600,490,6480,490C6360,490,6240,490,6120,490C6000,490,5880,490,5760,490C5640,490,5520,490,5400,490C5280,490,5160,490,5040,490C4920,490,4800,490,4680,490C4560,490,4440,490,4320,490C4200,490,4080,490,3960,490C3840,490,3720,490,3600,490C3480,490,3360,490,3240,490C3120,490,3000,490,2880,490C2760,490,2640,490,2520,490C2400,490,2280,490,2160,490C2040,490,1920,490,1800,490C1680,490,1560,490,1440,490C1320,490,1200,490,1080,490C960,490,840,490,720,490C600,490,480,490,360,490C240,490,120,490,60,490L0,490Z"/></svg>