<?xml version="1.0" standalone="no"?>
<svg xmlns:xlink="http://www.w3.org/1999/xlink" id="wave" style="transform:rotate(0deg); transition: 0.3s" viewBox="0 0 1440 490" version="1.1" xmlns="http://www.w3.org/2000/svg"><defs><linearGradient id="sw-gradient-0" x1="0" x2="0" y1="1" y2="0"><stop stop-color="rgba(172, 227, 255, 1)" offset="0%"/><stop stop-color="rgba(172, 227, 255, 1)" offset="100%"/></linearGradient></defs><path style="transform:translate(0, 0px); opacity:1" fill="url(#sw-gradient-0)" d="M0,49L60,40.8C120,33,240,16,360,32.7C480,49,600,98,720,155.2C840,212,960,278,1080,285.8C1200,294,1320,245,1440,236.8C1560,229,1680,261,1800,236.8C1920,212,2040,131,2160,98C2280,65,2400,82,2520,98C2640,114,2760,131,2880,179.7C3000,229,3120,310,3240,318.5C3360,327,3480,261,3600,220.5C3720,180,3840,163,3960,138.8C4080,114,4200,82,4320,130.7C4440,180,4560,310,4680,375.7C4800,441,4920,441,5040,416.5C5160,392,5280,343,5400,285.8C5520,229,5640,163,5760,155.2C5880,147,6000,196,6120,179.7C6240,163,6360,82,6480,57.2C6600,33,6720,65,6840,122.5C6960,180,7080,261,7200,318.5C7320,376,7440,408,7560,400.2C7680,392,7800,343,7920,310.3C8040,278,8160,261,8280,228.7C8400,196,8520,147,8580,122.5L8640,98L8640,490L8580,490C8520,490,8400,490,8280,490C8160,490,8040,490,7920,490C7800,490,7680,490,7560,490C7440,490,7320,490,7200,490C7080,490,6960,490,6840,490C6720,490,6600,490,6480,490C6360,490,6240,490,6120,490C6000,490,5880,490,5760,490C5640,490,5520,490,5400,490C5280,490,5160,490,5040,490C4920,490,4800,490,4680,490C4560,490,4440,490,4320,490C4200,490,4080,490,3960,490C3840,490,3720,490,3600,490C3480,490,3360,490,3240,490C3120,490,3000,490,2880,490C2760,490,2640,490,2520,490C2400,490,2280,490,2160,490C2040,490,1920,490,1800,490C1680,490,1560,490,1440,490C1320,490,1200,490,1080,490C960,490,840,490,720,490C600,490,480,490,360,490C240,490,120,490,60,490L0,490Z"/><defs><linearGradient id="sw-gradient-1" x1="0" x2="0" y1="1" y2="0"><stop stop-color="rgba(64, 194, 255, 1)" offset="0%"/><stop stop-color="rgba(64, 194, 255, 1)" offset="100%"/></linearGradient></defs><path style="transform:translate(0, 50px); opacity:0.9" fill="url(#sw-gradient-1)" d="M0,245L60,228.7C120,212,240,180,360,138.8C480,98,600,49,720,49C840,49,960,98,1080,155.2C1200,212,1320,278,1440,285.8C1560,294,1680,245,1800,228.7C1920,212,2040,229,2160,228.7C2280,229,2400,212,2520,245C2640,278,2760,359,2880,375.7C3000,392,3120,343,3240,343C3360,343,3480,392,3600,351.2C3720,310,3840,180,3960,130.7C4080,82,4200,114,4320,122.5C4440,131,4560,114,4680,122.5C4800,131,4920,163,5040,155.2C5160,147,5280,98,5400,114.3C5520,131,5640,212,5760,269.5C5880,327,6000,359,6120,318.5C6240,278,6360,163,6480,106.2C6600,49,6720,49,6840,81.7C6960,114,7080,180,7200,171.5C7320,163,7440,82,7560,49C7680,16,7800,33,7920,49C8040,65,8160,82,8280,147C8400,212,8520,327,8580,383.8L8640,441L8640,490L8580,490C8520,490,8400,490,8280,490C8160,490,8040,490,7920,490C7800,490,7680,490,7560,490C7440,490,7320,490,7200,490C7080,490,6960,490,6840,490C6720,490,6600,490,6480,490C6360,490,6240,490,6120,490C6000,490,5880,490,5760,490C5640,490,5520,490,5400,490C5280,490,5160,490,5040,490C4920,490,4800,490,4680,490C4560,490,4440,490,4320,490C4200,490,4080,490,3960,490C3840,490,3720,490,3600,490C3480,490,3360,490,3240,490C3120,490,3000,490,2880,490C2760,490,2640,490,2520,490C2400,490,2280,490,2160,490C2040,490,1920,490,1800,490C1680,490,1560,490,1440,490C1320,490,1200,490,1080,490C960,490,840,490,720,490C600,490,480,490,360,490C240,490,120,490,60,490L0,490Z"/><defs><linearGradient id="sw-gradient-2" x1="0" x2="0" y1="1" y2="0"><stop stop-color="rgba(40, 172, 244, 1)" offset="0%"/><stop stop-color="rgba(40, 172, 244, 1)" offset="100%"/></linearGradient></defs><path style="transform:translate(0, 100px); opacity:0.8" fill="url(#sw-gradient-2)" d="M0,0L60,24.5C120,49,240,98,360,155.2C480,212,600,278,720,253.2C840,229,960,114,1080,114.3C1200,114,1320,229,1440,228.7C1560,229,1680,114,1800,89.8C1920,65,2040,131,2160,187.8C2280,245,2400,294,2520,302.2C2640,310,2760,278,2880,236.8C3000,196,3120,147,3240,155.2C3360,163,3480,229,3600,245C3720,261,3840,229,3960,179.7C4080,131,4200,65,4320,81.7C4440,98,4560,196,4680,253.2C4800,310,4920,327,5040,318.5C5160,310,5280,278,5400,277.7C5520,278,5640,310,5760,318.5C5880,327,6000,310,6120,318.5C6240,327,6360,359,6480,359.3C6600,359,6720,327,6840,318.5C6960,310,7080,327,7200,302.2C7320,278,7440,212,7560,204.2C7680,196,7800,245,7920,228.7C8040,212,8160,131,8280,106.2C8400,82,8520,114,8580,130.7L8640,147L8640,490L8580,490C8520,490,8400,490,8280,490C8160,490,8040,490,7920,490C7800,490,7680,490,7560,490C7440,490,7320,490,7200,490C7080,490,6960,490,6840,490C6720,490,6600,490,6480,490C6360,490,6240,490,6120,490C6000,490,5880,490,5760,490C5640,490,5520,490,5400,490C5280,490,5160,490,5040,490C4920,490,4800,490,4680,490C4560,490,4440,490,4320,490C4200,490,4080,490,3960,490C3840,490,3720,490,3600,490C3480,490,3360,490,3240,490C3120,490,3000,490,2880,490C2760,490,2640,490,2520,490C2400,490,2280,490,2160,490C2040,490,1920,490,1800,490C1680,490,1560,490,1440,490C1320,490,1200,490,1080,490C960,490,840,490,720,490C600,490,480,490,360,490C240,490,120,490,60,490L0,490Z"/></svg>