<?xml version="1.0" standalone="no"?>
<svg xmlns:xlink="http://www.w3.org/1999/xlink" id="wave" style="transform:rotate(0deg); transition: 0.3s" viewBox="0 0 1440 490" version="1.1" xmlns="http://www.w3.org/2000/svg"><defs><linearGradient id="sw-gradient-0" x1="0" x2="0" y1="1" y2="0"><stop stop-color="rgba(172, 227, 255, 1)" offset="0%"/><stop stop-color="rgba(172, 227, 255, 1)" offset="100%"/></linearGradient></defs><path style="transform:translate(0, 0px); opacity:1" fill="url(#sw-gradient-0)" d="M0,98L60,81.7C120,65,240,33,360,81.7C480,131,600,261,720,294C840,327,960,261,1080,196C1200,131,1320,65,1440,73.5C1560,82,1680,163,1800,196C1920,229,2040,212,2160,196C2280,180,2400,163,2520,155.2C2640,147,2760,147,2880,163.3C3000,180,3120,212,3240,228.7C3360,245,3480,245,3600,236.8C3720,229,3840,212,3960,212.3C4080,212,4200,229,4320,269.5C4440,310,4560,376,4680,375.7C4800,376,4920,310,5040,310.3C5160,310,5280,376,5400,375.7C5520,376,5640,310,5760,253.2C5880,196,6000,147,6120,106.2C6240,65,6360,33,6480,81.7C6600,131,6720,261,6840,269.5C6960,278,7080,163,7200,163.3C7320,163,7440,278,7560,302.2C7680,327,7800,261,7920,253.2C8040,245,8160,294,8280,269.5C8400,245,8520,147,8580,98L8640,49L8640,490L8580,490C8520,490,8400,490,8280,490C8160,490,8040,490,7920,490C7800,490,7680,490,7560,490C7440,490,7320,490,7200,490C7080,490,6960,490,6840,490C6720,490,6600,490,6480,490C6360,490,6240,490,6120,490C6000,490,5880,490,5760,490C5640,490,5520,490,5400,490C5280,490,5160,490,5040,490C4920,490,4800,490,4680,490C4560,490,4440,490,4320,490C4200,490,4080,490,3960,490C3840,490,3720,490,3600,490C3480,490,3360,490,3240,490C3120,490,3000,490,2880,490C2760,490,2640,490,2520,490C2400,490,2280,490,2160,490C2040,490,1920,490,1800,490C1680,490,1560,490,1440,490C1320,490,1200,490,1080,490C960,490,840,490,720,490C600,490,480,490,360,490C240,490,120,490,60,490L0,490Z"/><defs><linearGradient id="sw-gradient-1" x1="0" x2="0" y1="1" y2="0"><stop stop-color="rgba(64, 194, 255, 1)" offset="0%"/><stop stop-color="rgba(64, 194, 255, 1)" offset="100%"/></linearGradient></defs><path style="transform:translate(0, 50px); opacity:0.9" fill="url(#sw-gradient-1)" d="M0,294L60,318.5C120,343,240,392,360,400.2C480,408,600,376,720,351.2C840,327,960,310,1080,253.2C1200,196,1320,98,1440,114.3C1560,131,1680,261,1800,269.5C1920,278,2040,163,2160,147C2280,131,2400,212,2520,212.3C2640,212,2760,131,2880,122.5C3000,114,3120,180,3240,196C3360,212,3480,180,3600,155.2C3720,131,3840,114,3960,122.5C4080,131,4200,163,4320,179.7C4440,196,4560,196,4680,220.5C4800,245,4920,294,5040,334.8C5160,376,5280,408,5400,416.5C5520,425,5640,408,5760,408.3C5880,408,6000,425,6120,367.5C6240,310,6360,180,6480,106.2C6600,33,6720,16,6840,32.7C6960,49,7080,98,7200,163.3C7320,229,7440,310,7560,351.2C7680,392,7800,392,7920,343C8040,294,8160,196,8280,179.7C8400,163,8520,229,8580,261.3L8640,294L8640,490L8580,490C8520,490,8400,490,8280,490C8160,490,8040,490,7920,490C7800,490,7680,490,7560,490C7440,490,7320,490,7200,490C7080,490,6960,490,6840,490C6720,490,6600,490,6480,490C6360,490,6240,490,6120,490C6000,490,5880,490,5760,490C5640,490,5520,490,5400,490C5280,490,5160,490,5040,490C4920,490,4800,490,4680,490C4560,490,4440,490,4320,490C4200,490,4080,490,3960,490C3840,490,3720,490,3600,490C3480,490,3360,490,3240,490C3120,490,3000,490,2880,490C2760,490,2640,490,2520,490C2400,490,2280,490,2160,490C2040,490,1920,490,1800,490C1680,490,1560,490,1440,490C1320,490,1200,490,1080,490C960,490,840,490,720,490C600,490,480,490,360,490C240,490,120,490,60,490L0,490Z"/><defs><linearGradient id="sw-gradient-2" x1="0" x2="0" y1="1" y2="0"><stop stop-color="rgba(40, 172, 244, 1)" offset="0%"/><stop stop-color="rgba(40, 172, 244, 1)" offset="100%"/></linearGradient></defs><path style="transform:translate(0, 100px); opacity:0.8" fill="url(#sw-gradient-2)" d="M0,147L60,163.3C120,180,240,212,360,187.8C480,163,600,82,720,114.3C840,147,960,294,1080,359.3C1200,425,1320,408,1440,359.3C1560,310,1680,229,1800,179.7C1920,131,2040,114,2160,89.8C2280,65,2400,33,2520,57.2C2640,82,2760,163,2880,196C3000,229,3120,212,3240,187.8C3360,163,3480,131,3600,138.8C3720,147,3840,196,3960,196C4080,196,4200,147,4320,122.5C4440,98,4560,98,4680,89.8C4800,82,4920,65,5040,98C5160,131,5280,212,5400,204.2C5520,196,5640,98,5760,49C5880,0,6000,0,6120,16.3C6240,33,6360,65,6480,89.8C6600,114,6720,131,6840,147C6960,163,7080,180,7200,196C7320,212,7440,229,7560,220.5C7680,212,7800,180,7920,196C8040,212,8160,278,8280,326.7C8400,376,8520,408,8580,424.7L8640,441L8640,490L8580,490C8520,490,8400,490,8280,490C8160,490,8040,490,7920,490C7800,490,7680,490,7560,490C7440,490,7320,490,7200,490C7080,490,6960,490,6840,490C6720,490,6600,490,6480,490C6360,490,6240,490,6120,490C6000,490,5880,490,5760,490C5640,490,5520,490,5400,490C5280,490,5160,490,5040,490C4920,490,4800,490,4680,490C4560,490,4440,490,4320,490C4200,490,4080,490,3960,490C3840,490,3720,490,3600,490C3480,490,3360,490,3240,490C3120,490,3000,490,2880,490C2760,490,2640,490,2520,490C2400,490,2280,490,2160,490C2040,490,1920,490,1800,490C1680,490,1560,490,1440,490C1320,490,1200,490,1080,490C960,490,840,490,720,490C600,490,480,490,360,490C240,490,120,490,60,490L0,490Z"/></svg>